%TF.GenerationSoftware,KiCad,Pcbnew,10.0.2*%
%TF.CreationDate,2026-06-11T20:40:09+02:00*%
%TF.ProjectId,stacja,73746163-6a61-42e6-9b69-6361645f7063,rev?*%
%TF.SameCoordinates,Original*%
%TF.FileFunction,Legend,Top*%
%TF.FilePolarity,Positive*%
%FSLAX46Y46*%
G04 Gerber Fmt 4.6, Leading zero omitted, Abs format (unit mm)*
G04 Created by KiCad (PCBNEW 10.0.2) date 2026-06-11 20:40:10*
%MOMM*%
%LPD*%
G01*
G04 APERTURE LIST*
%ADD10C,0.150000*%
%ADD11C,0.120000*%
%ADD12C,0.100000*%
G04 APERTURE END LIST*
D10*
X84583333Y-110204819D02*
X84250000Y-109728628D01*
X84011905Y-110204819D02*
X84011905Y-109204819D01*
X84011905Y-109204819D02*
X84392857Y-109204819D01*
X84392857Y-109204819D02*
X84488095Y-109252438D01*
X84488095Y-109252438D02*
X84535714Y-109300057D01*
X84535714Y-109300057D02*
X84583333Y-109395295D01*
X84583333Y-109395295D02*
X84583333Y-109538152D01*
X84583333Y-109538152D02*
X84535714Y-109633390D01*
X84535714Y-109633390D02*
X84488095Y-109681009D01*
X84488095Y-109681009D02*
X84392857Y-109728628D01*
X84392857Y-109728628D02*
X84011905Y-109728628D01*
X84964286Y-109300057D02*
X85011905Y-109252438D01*
X85011905Y-109252438D02*
X85107143Y-109204819D01*
X85107143Y-109204819D02*
X85345238Y-109204819D01*
X85345238Y-109204819D02*
X85440476Y-109252438D01*
X85440476Y-109252438D02*
X85488095Y-109300057D01*
X85488095Y-109300057D02*
X85535714Y-109395295D01*
X85535714Y-109395295D02*
X85535714Y-109490533D01*
X85535714Y-109490533D02*
X85488095Y-109633390D01*
X85488095Y-109633390D02*
X84916667Y-110204819D01*
X84916667Y-110204819D02*
X85535714Y-110204819D01*
X121454819Y-123416666D02*
X120978628Y-123749999D01*
X121454819Y-123988094D02*
X120454819Y-123988094D01*
X120454819Y-123988094D02*
X120454819Y-123607142D01*
X120454819Y-123607142D02*
X120502438Y-123511904D01*
X120502438Y-123511904D02*
X120550057Y-123464285D01*
X120550057Y-123464285D02*
X120645295Y-123416666D01*
X120645295Y-123416666D02*
X120788152Y-123416666D01*
X120788152Y-123416666D02*
X120883390Y-123464285D01*
X120883390Y-123464285D02*
X120931009Y-123511904D01*
X120931009Y-123511904D02*
X120978628Y-123607142D01*
X120978628Y-123607142D02*
X120978628Y-123988094D01*
X121454819Y-122464285D02*
X121454819Y-123035713D01*
X121454819Y-122749999D02*
X120454819Y-122749999D01*
X120454819Y-122749999D02*
X120597676Y-122845237D01*
X120597676Y-122845237D02*
X120692914Y-122940475D01*
X120692914Y-122940475D02*
X120740533Y-123035713D01*
X142238095Y-69304819D02*
X142238095Y-68304819D01*
X142238095Y-68781009D02*
X142809523Y-68781009D01*
X142809523Y-69304819D02*
X142809523Y-68304819D01*
X143238095Y-68400057D02*
X143285714Y-68352438D01*
X143285714Y-68352438D02*
X143380952Y-68304819D01*
X143380952Y-68304819D02*
X143619047Y-68304819D01*
X143619047Y-68304819D02*
X143714285Y-68352438D01*
X143714285Y-68352438D02*
X143761904Y-68400057D01*
X143761904Y-68400057D02*
X143809523Y-68495295D01*
X143809523Y-68495295D02*
X143809523Y-68590533D01*
X143809523Y-68590533D02*
X143761904Y-68733390D01*
X143761904Y-68733390D02*
X143190476Y-69304819D01*
X143190476Y-69304819D02*
X143809523Y-69304819D01*
X93083333Y-119859580D02*
X93035714Y-119907200D01*
X93035714Y-119907200D02*
X92892857Y-119954819D01*
X92892857Y-119954819D02*
X92797619Y-119954819D01*
X92797619Y-119954819D02*
X92654762Y-119907200D01*
X92654762Y-119907200D02*
X92559524Y-119811961D01*
X92559524Y-119811961D02*
X92511905Y-119716723D01*
X92511905Y-119716723D02*
X92464286Y-119526247D01*
X92464286Y-119526247D02*
X92464286Y-119383390D01*
X92464286Y-119383390D02*
X92511905Y-119192914D01*
X92511905Y-119192914D02*
X92559524Y-119097676D01*
X92559524Y-119097676D02*
X92654762Y-119002438D01*
X92654762Y-119002438D02*
X92797619Y-118954819D01*
X92797619Y-118954819D02*
X92892857Y-118954819D01*
X92892857Y-118954819D02*
X93035714Y-119002438D01*
X93035714Y-119002438D02*
X93083333Y-119050057D01*
X93940476Y-119288152D02*
X93940476Y-119954819D01*
X93702381Y-118907200D02*
X93464286Y-119621485D01*
X93464286Y-119621485D02*
X94083333Y-119621485D01*
X107704819Y-81761904D02*
X108514342Y-81761904D01*
X108514342Y-81761904D02*
X108609580Y-81714285D01*
X108609580Y-81714285D02*
X108657200Y-81666666D01*
X108657200Y-81666666D02*
X108704819Y-81571428D01*
X108704819Y-81571428D02*
X108704819Y-81380952D01*
X108704819Y-81380952D02*
X108657200Y-81285714D01*
X108657200Y-81285714D02*
X108609580Y-81238095D01*
X108609580Y-81238095D02*
X108514342Y-81190476D01*
X108514342Y-81190476D02*
X107704819Y-81190476D01*
X108704819Y-80190476D02*
X108704819Y-80761904D01*
X108704819Y-80476190D02*
X107704819Y-80476190D01*
X107704819Y-80476190D02*
X107847676Y-80571428D01*
X107847676Y-80571428D02*
X107942914Y-80666666D01*
X107942914Y-80666666D02*
X107990533Y-80761904D01*
X89083333Y-79679580D02*
X89035714Y-79727200D01*
X89035714Y-79727200D02*
X88892857Y-79774819D01*
X88892857Y-79774819D02*
X88797619Y-79774819D01*
X88797619Y-79774819D02*
X88654762Y-79727200D01*
X88654762Y-79727200D02*
X88559524Y-79631961D01*
X88559524Y-79631961D02*
X88511905Y-79536723D01*
X88511905Y-79536723D02*
X88464286Y-79346247D01*
X88464286Y-79346247D02*
X88464286Y-79203390D01*
X88464286Y-79203390D02*
X88511905Y-79012914D01*
X88511905Y-79012914D02*
X88559524Y-78917676D01*
X88559524Y-78917676D02*
X88654762Y-78822438D01*
X88654762Y-78822438D02*
X88797619Y-78774819D01*
X88797619Y-78774819D02*
X88892857Y-78774819D01*
X88892857Y-78774819D02*
X89035714Y-78822438D01*
X89035714Y-78822438D02*
X89083333Y-78870057D01*
X89416667Y-78774819D02*
X90083333Y-78774819D01*
X90083333Y-78774819D02*
X89654762Y-79774819D01*
X88333333Y-99109580D02*
X88285714Y-99157200D01*
X88285714Y-99157200D02*
X88142857Y-99204819D01*
X88142857Y-99204819D02*
X88047619Y-99204819D01*
X88047619Y-99204819D02*
X87904762Y-99157200D01*
X87904762Y-99157200D02*
X87809524Y-99061961D01*
X87809524Y-99061961D02*
X87761905Y-98966723D01*
X87761905Y-98966723D02*
X87714286Y-98776247D01*
X87714286Y-98776247D02*
X87714286Y-98633390D01*
X87714286Y-98633390D02*
X87761905Y-98442914D01*
X87761905Y-98442914D02*
X87809524Y-98347676D01*
X87809524Y-98347676D02*
X87904762Y-98252438D01*
X87904762Y-98252438D02*
X88047619Y-98204819D01*
X88047619Y-98204819D02*
X88142857Y-98204819D01*
X88142857Y-98204819D02*
X88285714Y-98252438D01*
X88285714Y-98252438D02*
X88333333Y-98300057D01*
X89238095Y-98204819D02*
X88761905Y-98204819D01*
X88761905Y-98204819D02*
X88714286Y-98681009D01*
X88714286Y-98681009D02*
X88761905Y-98633390D01*
X88761905Y-98633390D02*
X88857143Y-98585771D01*
X88857143Y-98585771D02*
X89095238Y-98585771D01*
X89095238Y-98585771D02*
X89190476Y-98633390D01*
X89190476Y-98633390D02*
X89238095Y-98681009D01*
X89238095Y-98681009D02*
X89285714Y-98776247D01*
X89285714Y-98776247D02*
X89285714Y-99014342D01*
X89285714Y-99014342D02*
X89238095Y-99109580D01*
X89238095Y-99109580D02*
X89190476Y-99157200D01*
X89190476Y-99157200D02*
X89095238Y-99204819D01*
X89095238Y-99204819D02*
X88857143Y-99204819D01*
X88857143Y-99204819D02*
X88761905Y-99157200D01*
X88761905Y-99157200D02*
X88714286Y-99109580D01*
X84333333Y-104109580D02*
X84285714Y-104157200D01*
X84285714Y-104157200D02*
X84142857Y-104204819D01*
X84142857Y-104204819D02*
X84047619Y-104204819D01*
X84047619Y-104204819D02*
X83904762Y-104157200D01*
X83904762Y-104157200D02*
X83809524Y-104061961D01*
X83809524Y-104061961D02*
X83761905Y-103966723D01*
X83761905Y-103966723D02*
X83714286Y-103776247D01*
X83714286Y-103776247D02*
X83714286Y-103633390D01*
X83714286Y-103633390D02*
X83761905Y-103442914D01*
X83761905Y-103442914D02*
X83809524Y-103347676D01*
X83809524Y-103347676D02*
X83904762Y-103252438D01*
X83904762Y-103252438D02*
X84047619Y-103204819D01*
X84047619Y-103204819D02*
X84142857Y-103204819D01*
X84142857Y-103204819D02*
X84285714Y-103252438D01*
X84285714Y-103252438D02*
X84333333Y-103300057D01*
X84666667Y-103204819D02*
X85285714Y-103204819D01*
X85285714Y-103204819D02*
X84952381Y-103585771D01*
X84952381Y-103585771D02*
X85095238Y-103585771D01*
X85095238Y-103585771D02*
X85190476Y-103633390D01*
X85190476Y-103633390D02*
X85238095Y-103681009D01*
X85238095Y-103681009D02*
X85285714Y-103776247D01*
X85285714Y-103776247D02*
X85285714Y-104014342D01*
X85285714Y-104014342D02*
X85238095Y-104109580D01*
X85238095Y-104109580D02*
X85190476Y-104157200D01*
X85190476Y-104157200D02*
X85095238Y-104204819D01*
X85095238Y-104204819D02*
X84809524Y-104204819D01*
X84809524Y-104204819D02*
X84714286Y-104157200D01*
X84714286Y-104157200D02*
X84666667Y-104109580D01*
X87107142Y-116092080D02*
X87059523Y-116139700D01*
X87059523Y-116139700D02*
X86916666Y-116187319D01*
X86916666Y-116187319D02*
X86821428Y-116187319D01*
X86821428Y-116187319D02*
X86678571Y-116139700D01*
X86678571Y-116139700D02*
X86583333Y-116044461D01*
X86583333Y-116044461D02*
X86535714Y-115949223D01*
X86535714Y-115949223D02*
X86488095Y-115758747D01*
X86488095Y-115758747D02*
X86488095Y-115615890D01*
X86488095Y-115615890D02*
X86535714Y-115425414D01*
X86535714Y-115425414D02*
X86583333Y-115330176D01*
X86583333Y-115330176D02*
X86678571Y-115234938D01*
X86678571Y-115234938D02*
X86821428Y-115187319D01*
X86821428Y-115187319D02*
X86916666Y-115187319D01*
X86916666Y-115187319D02*
X87059523Y-115234938D01*
X87059523Y-115234938D02*
X87107142Y-115282557D01*
X88059523Y-116187319D02*
X87488095Y-116187319D01*
X87773809Y-116187319D02*
X87773809Y-115187319D01*
X87773809Y-115187319D02*
X87678571Y-115330176D01*
X87678571Y-115330176D02*
X87583333Y-115425414D01*
X87583333Y-115425414D02*
X87488095Y-115473033D01*
X88678571Y-115187319D02*
X88773809Y-115187319D01*
X88773809Y-115187319D02*
X88869047Y-115234938D01*
X88869047Y-115234938D02*
X88916666Y-115282557D01*
X88916666Y-115282557D02*
X88964285Y-115377795D01*
X88964285Y-115377795D02*
X89011904Y-115568271D01*
X89011904Y-115568271D02*
X89011904Y-115806366D01*
X89011904Y-115806366D02*
X88964285Y-115996842D01*
X88964285Y-115996842D02*
X88916666Y-116092080D01*
X88916666Y-116092080D02*
X88869047Y-116139700D01*
X88869047Y-116139700D02*
X88773809Y-116187319D01*
X88773809Y-116187319D02*
X88678571Y-116187319D01*
X88678571Y-116187319D02*
X88583333Y-116139700D01*
X88583333Y-116139700D02*
X88535714Y-116092080D01*
X88535714Y-116092080D02*
X88488095Y-115996842D01*
X88488095Y-115996842D02*
X88440476Y-115806366D01*
X88440476Y-115806366D02*
X88440476Y-115568271D01*
X88440476Y-115568271D02*
X88488095Y-115377795D01*
X88488095Y-115377795D02*
X88535714Y-115282557D01*
X88535714Y-115282557D02*
X88583333Y-115234938D01*
X88583333Y-115234938D02*
X88678571Y-115187319D01*
X145333333Y-88704819D02*
X145000000Y-88228628D01*
X144761905Y-88704819D02*
X144761905Y-87704819D01*
X144761905Y-87704819D02*
X145142857Y-87704819D01*
X145142857Y-87704819D02*
X145238095Y-87752438D01*
X145238095Y-87752438D02*
X145285714Y-87800057D01*
X145285714Y-87800057D02*
X145333333Y-87895295D01*
X145333333Y-87895295D02*
X145333333Y-88038152D01*
X145333333Y-88038152D02*
X145285714Y-88133390D01*
X145285714Y-88133390D02*
X145238095Y-88181009D01*
X145238095Y-88181009D02*
X145142857Y-88228628D01*
X145142857Y-88228628D02*
X144761905Y-88228628D01*
X146190476Y-87704819D02*
X146000000Y-87704819D01*
X146000000Y-87704819D02*
X145904762Y-87752438D01*
X145904762Y-87752438D02*
X145857143Y-87800057D01*
X145857143Y-87800057D02*
X145761905Y-87942914D01*
X145761905Y-87942914D02*
X145714286Y-88133390D01*
X145714286Y-88133390D02*
X145714286Y-88514342D01*
X145714286Y-88514342D02*
X145761905Y-88609580D01*
X145761905Y-88609580D02*
X145809524Y-88657200D01*
X145809524Y-88657200D02*
X145904762Y-88704819D01*
X145904762Y-88704819D02*
X146095238Y-88704819D01*
X146095238Y-88704819D02*
X146190476Y-88657200D01*
X146190476Y-88657200D02*
X146238095Y-88609580D01*
X146238095Y-88609580D02*
X146285714Y-88514342D01*
X146285714Y-88514342D02*
X146285714Y-88276247D01*
X146285714Y-88276247D02*
X146238095Y-88181009D01*
X146238095Y-88181009D02*
X146190476Y-88133390D01*
X146190476Y-88133390D02*
X146095238Y-88085771D01*
X146095238Y-88085771D02*
X145904762Y-88085771D01*
X145904762Y-88085771D02*
X145809524Y-88133390D01*
X145809524Y-88133390D02*
X145761905Y-88181009D01*
X145761905Y-88181009D02*
X145714286Y-88276247D01*
X88583333Y-75859580D02*
X88535714Y-75907200D01*
X88535714Y-75907200D02*
X88392857Y-75954819D01*
X88392857Y-75954819D02*
X88297619Y-75954819D01*
X88297619Y-75954819D02*
X88154762Y-75907200D01*
X88154762Y-75907200D02*
X88059524Y-75811961D01*
X88059524Y-75811961D02*
X88011905Y-75716723D01*
X88011905Y-75716723D02*
X87964286Y-75526247D01*
X87964286Y-75526247D02*
X87964286Y-75383390D01*
X87964286Y-75383390D02*
X88011905Y-75192914D01*
X88011905Y-75192914D02*
X88059524Y-75097676D01*
X88059524Y-75097676D02*
X88154762Y-75002438D01*
X88154762Y-75002438D02*
X88297619Y-74954819D01*
X88297619Y-74954819D02*
X88392857Y-74954819D01*
X88392857Y-74954819D02*
X88535714Y-75002438D01*
X88535714Y-75002438D02*
X88583333Y-75050057D01*
X89154762Y-75383390D02*
X89059524Y-75335771D01*
X89059524Y-75335771D02*
X89011905Y-75288152D01*
X89011905Y-75288152D02*
X88964286Y-75192914D01*
X88964286Y-75192914D02*
X88964286Y-75145295D01*
X88964286Y-75145295D02*
X89011905Y-75050057D01*
X89011905Y-75050057D02*
X89059524Y-75002438D01*
X89059524Y-75002438D02*
X89154762Y-74954819D01*
X89154762Y-74954819D02*
X89345238Y-74954819D01*
X89345238Y-74954819D02*
X89440476Y-75002438D01*
X89440476Y-75002438D02*
X89488095Y-75050057D01*
X89488095Y-75050057D02*
X89535714Y-75145295D01*
X89535714Y-75145295D02*
X89535714Y-75192914D01*
X89535714Y-75192914D02*
X89488095Y-75288152D01*
X89488095Y-75288152D02*
X89440476Y-75335771D01*
X89440476Y-75335771D02*
X89345238Y-75383390D01*
X89345238Y-75383390D02*
X89154762Y-75383390D01*
X89154762Y-75383390D02*
X89059524Y-75431009D01*
X89059524Y-75431009D02*
X89011905Y-75478628D01*
X89011905Y-75478628D02*
X88964286Y-75573866D01*
X88964286Y-75573866D02*
X88964286Y-75764342D01*
X88964286Y-75764342D02*
X89011905Y-75859580D01*
X89011905Y-75859580D02*
X89059524Y-75907200D01*
X89059524Y-75907200D02*
X89154762Y-75954819D01*
X89154762Y-75954819D02*
X89345238Y-75954819D01*
X89345238Y-75954819D02*
X89440476Y-75907200D01*
X89440476Y-75907200D02*
X89488095Y-75859580D01*
X89488095Y-75859580D02*
X89535714Y-75764342D01*
X89535714Y-75764342D02*
X89535714Y-75573866D01*
X89535714Y-75573866D02*
X89488095Y-75478628D01*
X89488095Y-75478628D02*
X89440476Y-75431009D01*
X89440476Y-75431009D02*
X89345238Y-75383390D01*
X79166666Y-84374819D02*
X79166666Y-85089104D01*
X79166666Y-85089104D02*
X79119047Y-85231961D01*
X79119047Y-85231961D02*
X79023809Y-85327200D01*
X79023809Y-85327200D02*
X78880952Y-85374819D01*
X78880952Y-85374819D02*
X78785714Y-85374819D01*
X79595238Y-84470057D02*
X79642857Y-84422438D01*
X79642857Y-84422438D02*
X79738095Y-84374819D01*
X79738095Y-84374819D02*
X79976190Y-84374819D01*
X79976190Y-84374819D02*
X80071428Y-84422438D01*
X80071428Y-84422438D02*
X80119047Y-84470057D01*
X80119047Y-84470057D02*
X80166666Y-84565295D01*
X80166666Y-84565295D02*
X80166666Y-84660533D01*
X80166666Y-84660533D02*
X80119047Y-84803390D01*
X80119047Y-84803390D02*
X79547619Y-85374819D01*
X79547619Y-85374819D02*
X80166666Y-85374819D01*
X107583333Y-119045180D02*
X107583333Y-118330895D01*
X107583333Y-118330895D02*
X107630952Y-118188038D01*
X107630952Y-118188038D02*
X107726190Y-118092800D01*
X107726190Y-118092800D02*
X107869047Y-118045180D01*
X107869047Y-118045180D02*
X107964285Y-118045180D01*
X106583333Y-118045180D02*
X107154761Y-118045180D01*
X106869047Y-118045180D02*
X106869047Y-119045180D01*
X106869047Y-119045180D02*
X106964285Y-118902323D01*
X106964285Y-118902323D02*
X107059523Y-118807085D01*
X107059523Y-118807085D02*
X107154761Y-118759466D01*
X88583333Y-92359580D02*
X88535714Y-92407200D01*
X88535714Y-92407200D02*
X88392857Y-92454819D01*
X88392857Y-92454819D02*
X88297619Y-92454819D01*
X88297619Y-92454819D02*
X88154762Y-92407200D01*
X88154762Y-92407200D02*
X88059524Y-92311961D01*
X88059524Y-92311961D02*
X88011905Y-92216723D01*
X88011905Y-92216723D02*
X87964286Y-92026247D01*
X87964286Y-92026247D02*
X87964286Y-91883390D01*
X87964286Y-91883390D02*
X88011905Y-91692914D01*
X88011905Y-91692914D02*
X88059524Y-91597676D01*
X88059524Y-91597676D02*
X88154762Y-91502438D01*
X88154762Y-91502438D02*
X88297619Y-91454819D01*
X88297619Y-91454819D02*
X88392857Y-91454819D01*
X88392857Y-91454819D02*
X88535714Y-91502438D01*
X88535714Y-91502438D02*
X88583333Y-91550057D01*
X88964286Y-91550057D02*
X89011905Y-91502438D01*
X89011905Y-91502438D02*
X89107143Y-91454819D01*
X89107143Y-91454819D02*
X89345238Y-91454819D01*
X89345238Y-91454819D02*
X89440476Y-91502438D01*
X89440476Y-91502438D02*
X89488095Y-91550057D01*
X89488095Y-91550057D02*
X89535714Y-91645295D01*
X89535714Y-91645295D02*
X89535714Y-91740533D01*
X89535714Y-91740533D02*
X89488095Y-91883390D01*
X89488095Y-91883390D02*
X88916667Y-92454819D01*
X88916667Y-92454819D02*
X89535714Y-92454819D01*
X136404761Y-75300057D02*
X136309523Y-75252438D01*
X136309523Y-75252438D02*
X136214285Y-75157200D01*
X136214285Y-75157200D02*
X136071428Y-75014342D01*
X136071428Y-75014342D02*
X135976190Y-74966723D01*
X135976190Y-74966723D02*
X135880952Y-74966723D01*
X135928571Y-75204819D02*
X135833333Y-75157200D01*
X135833333Y-75157200D02*
X135738095Y-75061961D01*
X135738095Y-75061961D02*
X135690476Y-74871485D01*
X135690476Y-74871485D02*
X135690476Y-74538152D01*
X135690476Y-74538152D02*
X135738095Y-74347676D01*
X135738095Y-74347676D02*
X135833333Y-74252438D01*
X135833333Y-74252438D02*
X135928571Y-74204819D01*
X135928571Y-74204819D02*
X136119047Y-74204819D01*
X136119047Y-74204819D02*
X136214285Y-74252438D01*
X136214285Y-74252438D02*
X136309523Y-74347676D01*
X136309523Y-74347676D02*
X136357142Y-74538152D01*
X136357142Y-74538152D02*
X136357142Y-74871485D01*
X136357142Y-74871485D02*
X136309523Y-75061961D01*
X136309523Y-75061961D02*
X136214285Y-75157200D01*
X136214285Y-75157200D02*
X136119047Y-75204819D01*
X136119047Y-75204819D02*
X135928571Y-75204819D01*
X137309523Y-75204819D02*
X136738095Y-75204819D01*
X137023809Y-75204819D02*
X137023809Y-74204819D01*
X137023809Y-74204819D02*
X136928571Y-74347676D01*
X136928571Y-74347676D02*
X136833333Y-74442914D01*
X136833333Y-74442914D02*
X136738095Y-74490533D01*
X128833333Y-76204819D02*
X128500000Y-75728628D01*
X128261905Y-76204819D02*
X128261905Y-75204819D01*
X128261905Y-75204819D02*
X128642857Y-75204819D01*
X128642857Y-75204819D02*
X128738095Y-75252438D01*
X128738095Y-75252438D02*
X128785714Y-75300057D01*
X128785714Y-75300057D02*
X128833333Y-75395295D01*
X128833333Y-75395295D02*
X128833333Y-75538152D01*
X128833333Y-75538152D02*
X128785714Y-75633390D01*
X128785714Y-75633390D02*
X128738095Y-75681009D01*
X128738095Y-75681009D02*
X128642857Y-75728628D01*
X128642857Y-75728628D02*
X128261905Y-75728628D01*
X129166667Y-75204819D02*
X129833333Y-75204819D01*
X129833333Y-75204819D02*
X129404762Y-76204819D01*
X138833333Y-88954819D02*
X138500000Y-88478628D01*
X138261905Y-88954819D02*
X138261905Y-87954819D01*
X138261905Y-87954819D02*
X138642857Y-87954819D01*
X138642857Y-87954819D02*
X138738095Y-88002438D01*
X138738095Y-88002438D02*
X138785714Y-88050057D01*
X138785714Y-88050057D02*
X138833333Y-88145295D01*
X138833333Y-88145295D02*
X138833333Y-88288152D01*
X138833333Y-88288152D02*
X138785714Y-88383390D01*
X138785714Y-88383390D02*
X138738095Y-88431009D01*
X138738095Y-88431009D02*
X138642857Y-88478628D01*
X138642857Y-88478628D02*
X138261905Y-88478628D01*
X139738095Y-87954819D02*
X139261905Y-87954819D01*
X139261905Y-87954819D02*
X139214286Y-88431009D01*
X139214286Y-88431009D02*
X139261905Y-88383390D01*
X139261905Y-88383390D02*
X139357143Y-88335771D01*
X139357143Y-88335771D02*
X139595238Y-88335771D01*
X139595238Y-88335771D02*
X139690476Y-88383390D01*
X139690476Y-88383390D02*
X139738095Y-88431009D01*
X139738095Y-88431009D02*
X139785714Y-88526247D01*
X139785714Y-88526247D02*
X139785714Y-88764342D01*
X139785714Y-88764342D02*
X139738095Y-88859580D01*
X139738095Y-88859580D02*
X139690476Y-88907200D01*
X139690476Y-88907200D02*
X139595238Y-88954819D01*
X139595238Y-88954819D02*
X139357143Y-88954819D01*
X139357143Y-88954819D02*
X139261905Y-88907200D01*
X139261905Y-88907200D02*
X139214286Y-88859580D01*
X88583333Y-87609580D02*
X88535714Y-87657200D01*
X88535714Y-87657200D02*
X88392857Y-87704819D01*
X88392857Y-87704819D02*
X88297619Y-87704819D01*
X88297619Y-87704819D02*
X88154762Y-87657200D01*
X88154762Y-87657200D02*
X88059524Y-87561961D01*
X88059524Y-87561961D02*
X88011905Y-87466723D01*
X88011905Y-87466723D02*
X87964286Y-87276247D01*
X87964286Y-87276247D02*
X87964286Y-87133390D01*
X87964286Y-87133390D02*
X88011905Y-86942914D01*
X88011905Y-86942914D02*
X88059524Y-86847676D01*
X88059524Y-86847676D02*
X88154762Y-86752438D01*
X88154762Y-86752438D02*
X88297619Y-86704819D01*
X88297619Y-86704819D02*
X88392857Y-86704819D01*
X88392857Y-86704819D02*
X88535714Y-86752438D01*
X88535714Y-86752438D02*
X88583333Y-86800057D01*
X89535714Y-87704819D02*
X88964286Y-87704819D01*
X89250000Y-87704819D02*
X89250000Y-86704819D01*
X89250000Y-86704819D02*
X89154762Y-86847676D01*
X89154762Y-86847676D02*
X89059524Y-86942914D01*
X89059524Y-86942914D02*
X88964286Y-86990533D01*
X142488095Y-119054819D02*
X142488095Y-118054819D01*
X142488095Y-118531009D02*
X143059523Y-118531009D01*
X143059523Y-119054819D02*
X143059523Y-118054819D01*
X143440476Y-118054819D02*
X144059523Y-118054819D01*
X144059523Y-118054819D02*
X143726190Y-118435771D01*
X143726190Y-118435771D02*
X143869047Y-118435771D01*
X143869047Y-118435771D02*
X143964285Y-118483390D01*
X143964285Y-118483390D02*
X144011904Y-118531009D01*
X144011904Y-118531009D02*
X144059523Y-118626247D01*
X144059523Y-118626247D02*
X144059523Y-118864342D01*
X144059523Y-118864342D02*
X144011904Y-118959580D01*
X144011904Y-118959580D02*
X143964285Y-119007200D01*
X143964285Y-119007200D02*
X143869047Y-119054819D01*
X143869047Y-119054819D02*
X143583333Y-119054819D01*
X143583333Y-119054819D02*
X143488095Y-119007200D01*
X143488095Y-119007200D02*
X143440476Y-118959580D01*
X92833333Y-74109580D02*
X92785714Y-74157200D01*
X92785714Y-74157200D02*
X92642857Y-74204819D01*
X92642857Y-74204819D02*
X92547619Y-74204819D01*
X92547619Y-74204819D02*
X92404762Y-74157200D01*
X92404762Y-74157200D02*
X92309524Y-74061961D01*
X92309524Y-74061961D02*
X92261905Y-73966723D01*
X92261905Y-73966723D02*
X92214286Y-73776247D01*
X92214286Y-73776247D02*
X92214286Y-73633390D01*
X92214286Y-73633390D02*
X92261905Y-73442914D01*
X92261905Y-73442914D02*
X92309524Y-73347676D01*
X92309524Y-73347676D02*
X92404762Y-73252438D01*
X92404762Y-73252438D02*
X92547619Y-73204819D01*
X92547619Y-73204819D02*
X92642857Y-73204819D01*
X92642857Y-73204819D02*
X92785714Y-73252438D01*
X92785714Y-73252438D02*
X92833333Y-73300057D01*
X93690476Y-73204819D02*
X93500000Y-73204819D01*
X93500000Y-73204819D02*
X93404762Y-73252438D01*
X93404762Y-73252438D02*
X93357143Y-73300057D01*
X93357143Y-73300057D02*
X93261905Y-73442914D01*
X93261905Y-73442914D02*
X93214286Y-73633390D01*
X93214286Y-73633390D02*
X93214286Y-74014342D01*
X93214286Y-74014342D02*
X93261905Y-74109580D01*
X93261905Y-74109580D02*
X93309524Y-74157200D01*
X93309524Y-74157200D02*
X93404762Y-74204819D01*
X93404762Y-74204819D02*
X93595238Y-74204819D01*
X93595238Y-74204819D02*
X93690476Y-74157200D01*
X93690476Y-74157200D02*
X93738095Y-74109580D01*
X93738095Y-74109580D02*
X93785714Y-74014342D01*
X93785714Y-74014342D02*
X93785714Y-73776247D01*
X93785714Y-73776247D02*
X93738095Y-73681009D01*
X93738095Y-73681009D02*
X93690476Y-73633390D01*
X93690476Y-73633390D02*
X93595238Y-73585771D01*
X93595238Y-73585771D02*
X93404762Y-73585771D01*
X93404762Y-73585771D02*
X93309524Y-73633390D01*
X93309524Y-73633390D02*
X93261905Y-73681009D01*
X93261905Y-73681009D02*
X93214286Y-73776247D01*
X131333333Y-71204819D02*
X131000000Y-70728628D01*
X130761905Y-71204819D02*
X130761905Y-70204819D01*
X130761905Y-70204819D02*
X131142857Y-70204819D01*
X131142857Y-70204819D02*
X131238095Y-70252438D01*
X131238095Y-70252438D02*
X131285714Y-70300057D01*
X131285714Y-70300057D02*
X131333333Y-70395295D01*
X131333333Y-70395295D02*
X131333333Y-70538152D01*
X131333333Y-70538152D02*
X131285714Y-70633390D01*
X131285714Y-70633390D02*
X131238095Y-70681009D01*
X131238095Y-70681009D02*
X131142857Y-70728628D01*
X131142857Y-70728628D02*
X130761905Y-70728628D01*
X132190476Y-70538152D02*
X132190476Y-71204819D01*
X131952381Y-70157200D02*
X131714286Y-70871485D01*
X131714286Y-70871485D02*
X132333333Y-70871485D01*
X142488095Y-93204819D02*
X142488095Y-94014342D01*
X142488095Y-94014342D02*
X142535714Y-94109580D01*
X142535714Y-94109580D02*
X142583333Y-94157200D01*
X142583333Y-94157200D02*
X142678571Y-94204819D01*
X142678571Y-94204819D02*
X142869047Y-94204819D01*
X142869047Y-94204819D02*
X142964285Y-94157200D01*
X142964285Y-94157200D02*
X143011904Y-94109580D01*
X143011904Y-94109580D02*
X143059523Y-94014342D01*
X143059523Y-94014342D02*
X143059523Y-93204819D01*
X143488095Y-93300057D02*
X143535714Y-93252438D01*
X143535714Y-93252438D02*
X143630952Y-93204819D01*
X143630952Y-93204819D02*
X143869047Y-93204819D01*
X143869047Y-93204819D02*
X143964285Y-93252438D01*
X143964285Y-93252438D02*
X144011904Y-93300057D01*
X144011904Y-93300057D02*
X144059523Y-93395295D01*
X144059523Y-93395295D02*
X144059523Y-93490533D01*
X144059523Y-93490533D02*
X144011904Y-93633390D01*
X144011904Y-93633390D02*
X143440476Y-94204819D01*
X143440476Y-94204819D02*
X144059523Y-94204819D01*
X120488095Y-106704819D02*
X120488095Y-107514342D01*
X120488095Y-107514342D02*
X120535714Y-107609580D01*
X120535714Y-107609580D02*
X120583333Y-107657200D01*
X120583333Y-107657200D02*
X120678571Y-107704819D01*
X120678571Y-107704819D02*
X120869047Y-107704819D01*
X120869047Y-107704819D02*
X120964285Y-107657200D01*
X120964285Y-107657200D02*
X121011904Y-107609580D01*
X121011904Y-107609580D02*
X121059523Y-107514342D01*
X121059523Y-107514342D02*
X121059523Y-106704819D01*
X121964285Y-107038152D02*
X121964285Y-107704819D01*
X121726190Y-106657200D02*
X121488095Y-107371485D01*
X121488095Y-107371485D02*
X122107142Y-107371485D01*
X97238095Y-95704819D02*
X97238095Y-96514342D01*
X97238095Y-96514342D02*
X97285714Y-96609580D01*
X97285714Y-96609580D02*
X97333333Y-96657200D01*
X97333333Y-96657200D02*
X97428571Y-96704819D01*
X97428571Y-96704819D02*
X97619047Y-96704819D01*
X97619047Y-96704819D02*
X97714285Y-96657200D01*
X97714285Y-96657200D02*
X97761904Y-96609580D01*
X97761904Y-96609580D02*
X97809523Y-96514342D01*
X97809523Y-96514342D02*
X97809523Y-95704819D01*
X98190476Y-95704819D02*
X98809523Y-95704819D01*
X98809523Y-95704819D02*
X98476190Y-96085771D01*
X98476190Y-96085771D02*
X98619047Y-96085771D01*
X98619047Y-96085771D02*
X98714285Y-96133390D01*
X98714285Y-96133390D02*
X98761904Y-96181009D01*
X98761904Y-96181009D02*
X98809523Y-96276247D01*
X98809523Y-96276247D02*
X98809523Y-96514342D01*
X98809523Y-96514342D02*
X98761904Y-96609580D01*
X98761904Y-96609580D02*
X98714285Y-96657200D01*
X98714285Y-96657200D02*
X98619047Y-96704819D01*
X98619047Y-96704819D02*
X98333333Y-96704819D01*
X98333333Y-96704819D02*
X98238095Y-96657200D01*
X98238095Y-96657200D02*
X98190476Y-96609580D01*
X76238095Y-119054819D02*
X76238095Y-118054819D01*
X76238095Y-118531009D02*
X76809523Y-118531009D01*
X76809523Y-119054819D02*
X76809523Y-118054819D01*
X77714285Y-118388152D02*
X77714285Y-119054819D01*
X77476190Y-118007200D02*
X77238095Y-118721485D01*
X77238095Y-118721485D02*
X77857142Y-118721485D01*
X76238095Y-69304819D02*
X76238095Y-68304819D01*
X76238095Y-68781009D02*
X76809523Y-68781009D01*
X76809523Y-69304819D02*
X76809523Y-68304819D01*
X77809523Y-69304819D02*
X77238095Y-69304819D01*
X77523809Y-69304819D02*
X77523809Y-68304819D01*
X77523809Y-68304819D02*
X77428571Y-68447676D01*
X77428571Y-68447676D02*
X77333333Y-68542914D01*
X77333333Y-68542914D02*
X77238095Y-68590533D01*
X86333333Y-79804819D02*
X86000000Y-79328628D01*
X85761905Y-79804819D02*
X85761905Y-78804819D01*
X85761905Y-78804819D02*
X86142857Y-78804819D01*
X86142857Y-78804819D02*
X86238095Y-78852438D01*
X86238095Y-78852438D02*
X86285714Y-78900057D01*
X86285714Y-78900057D02*
X86333333Y-78995295D01*
X86333333Y-78995295D02*
X86333333Y-79138152D01*
X86333333Y-79138152D02*
X86285714Y-79233390D01*
X86285714Y-79233390D02*
X86238095Y-79281009D01*
X86238095Y-79281009D02*
X86142857Y-79328628D01*
X86142857Y-79328628D02*
X85761905Y-79328628D01*
X86666667Y-78804819D02*
X87285714Y-78804819D01*
X87285714Y-78804819D02*
X86952381Y-79185771D01*
X86952381Y-79185771D02*
X87095238Y-79185771D01*
X87095238Y-79185771D02*
X87190476Y-79233390D01*
X87190476Y-79233390D02*
X87238095Y-79281009D01*
X87238095Y-79281009D02*
X87285714Y-79376247D01*
X87285714Y-79376247D02*
X87285714Y-79614342D01*
X87285714Y-79614342D02*
X87238095Y-79709580D01*
X87238095Y-79709580D02*
X87190476Y-79757200D01*
X87190476Y-79757200D02*
X87095238Y-79804819D01*
X87095238Y-79804819D02*
X86809524Y-79804819D01*
X86809524Y-79804819D02*
X86714286Y-79757200D01*
X86714286Y-79757200D02*
X86666667Y-79709580D01*
X136083333Y-102609580D02*
X136035714Y-102657200D01*
X136035714Y-102657200D02*
X135892857Y-102704819D01*
X135892857Y-102704819D02*
X135797619Y-102704819D01*
X135797619Y-102704819D02*
X135654762Y-102657200D01*
X135654762Y-102657200D02*
X135559524Y-102561961D01*
X135559524Y-102561961D02*
X135511905Y-102466723D01*
X135511905Y-102466723D02*
X135464286Y-102276247D01*
X135464286Y-102276247D02*
X135464286Y-102133390D01*
X135464286Y-102133390D02*
X135511905Y-101942914D01*
X135511905Y-101942914D02*
X135559524Y-101847676D01*
X135559524Y-101847676D02*
X135654762Y-101752438D01*
X135654762Y-101752438D02*
X135797619Y-101704819D01*
X135797619Y-101704819D02*
X135892857Y-101704819D01*
X135892857Y-101704819D02*
X136035714Y-101752438D01*
X136035714Y-101752438D02*
X136083333Y-101800057D01*
X136559524Y-102704819D02*
X136750000Y-102704819D01*
X136750000Y-102704819D02*
X136845238Y-102657200D01*
X136845238Y-102657200D02*
X136892857Y-102609580D01*
X136892857Y-102609580D02*
X136988095Y-102466723D01*
X136988095Y-102466723D02*
X137035714Y-102276247D01*
X137035714Y-102276247D02*
X137035714Y-101895295D01*
X137035714Y-101895295D02*
X136988095Y-101800057D01*
X136988095Y-101800057D02*
X136940476Y-101752438D01*
X136940476Y-101752438D02*
X136845238Y-101704819D01*
X136845238Y-101704819D02*
X136654762Y-101704819D01*
X136654762Y-101704819D02*
X136559524Y-101752438D01*
X136559524Y-101752438D02*
X136511905Y-101800057D01*
X136511905Y-101800057D02*
X136464286Y-101895295D01*
X136464286Y-101895295D02*
X136464286Y-102133390D01*
X136464286Y-102133390D02*
X136511905Y-102228628D01*
X136511905Y-102228628D02*
X136559524Y-102276247D01*
X136559524Y-102276247D02*
X136654762Y-102323866D01*
X136654762Y-102323866D02*
X136845238Y-102323866D01*
X136845238Y-102323866D02*
X136940476Y-102276247D01*
X136940476Y-102276247D02*
X136988095Y-102228628D01*
X136988095Y-102228628D02*
X137035714Y-102133390D01*
%TO.C,R2*%
D11*
X86272936Y-110765000D02*
X86727064Y-110765000D01*
X86272936Y-112235000D02*
X86727064Y-112235000D01*
%TO.C,R1*%
X122015000Y-123977064D02*
X122015000Y-123522936D01*
X123485000Y-123977064D02*
X123485000Y-123522936D01*
%TO.C,C4*%
X92015000Y-121688748D02*
X92015000Y-122211252D01*
X93485000Y-121688748D02*
X93485000Y-122211252D01*
%TO.C,U1*%
X99130000Y-61880000D02*
X99130000Y-68040000D01*
X99130000Y-61880000D02*
X117370000Y-61880000D01*
X99130000Y-86840000D02*
X99130000Y-87620000D01*
X99130000Y-87620000D02*
X100130000Y-87620000D01*
X117370000Y-61880000D02*
X117370000Y-68295000D01*
X117370000Y-86840000D02*
X117370000Y-87620000D01*
X117370000Y-87620000D02*
X116370000Y-87620000D01*
X99125000Y-68765000D02*
X98625000Y-68765000D01*
X99125000Y-68265000D01*
X99125000Y-68765000D01*
G36*
X99125000Y-68765000D02*
G01*
X98625000Y-68765000D01*
X99125000Y-68265000D01*
X99125000Y-68765000D01*
G37*
%TO.C,C7*%
X91238748Y-80265000D02*
X91761252Y-80265000D01*
X91238748Y-81735000D02*
X91761252Y-81735000D01*
%TO.C,C5*%
X91711252Y-96765000D02*
X91188748Y-96765000D01*
X91711252Y-98235000D02*
X91188748Y-98235000D01*
%TO.C,C3*%
X86761252Y-104677500D02*
X86238748Y-104677500D01*
X86761252Y-106147500D02*
X86238748Y-106147500D01*
%TO.C,C10*%
X86288748Y-116677500D02*
X86811252Y-116677500D01*
X86288748Y-118147500D02*
X86811252Y-118147500D01*
%TO.C,R6*%
X142564564Y-87515000D02*
X142110436Y-87515000D01*
X142564564Y-88985000D02*
X142110436Y-88985000D01*
%TO.C,C8*%
X85688748Y-74765000D02*
X86211252Y-74765000D01*
X85688748Y-76235000D02*
X86211252Y-76235000D01*
%TO.C,J2*%
X78120000Y-85920000D02*
X79500000Y-85920000D01*
X78120000Y-87300000D02*
X78120000Y-85920000D01*
X78120000Y-88570000D02*
X78120000Y-101380000D01*
X78120000Y-88570000D02*
X80880000Y-88570000D01*
X78120000Y-101380000D02*
X80880000Y-101380000D01*
X80880000Y-88570000D02*
X80880000Y-101380000D01*
%TO.C,J1*%
X102670000Y-118935000D02*
X102670000Y-120345000D01*
X110210000Y-123015000D02*
X111010000Y-123015000D01*
X111010000Y-123015000D02*
X111010000Y-122865000D01*
X111830000Y-118935000D02*
X111830000Y-120345000D01*
%TO.C,C2*%
X91811252Y-91265000D02*
X91288748Y-91265000D01*
X91811252Y-92735000D02*
X91288748Y-92735000D01*
%TO.C,Q1*%
X134740000Y-70440000D02*
X136260000Y-70440000D01*
X134740000Y-71440000D02*
X134740000Y-70440000D01*
X134740000Y-73560000D02*
X134740000Y-72560000D01*
X136260000Y-70440000D02*
X136260000Y-70490000D01*
X136260000Y-71610000D02*
X136260000Y-72390000D01*
X136260000Y-73510000D02*
X136260000Y-73560000D01*
X136260000Y-73560000D02*
X134740000Y-73560000D01*
X136800000Y-72380000D02*
X136560000Y-72050000D01*
X137040000Y-72050000D01*
X136800000Y-72380000D01*
G36*
X136800000Y-72380000D02*
G01*
X136560000Y-72050000D01*
X137040000Y-72050000D01*
X136800000Y-72380000D01*
G37*
%TO.C,R7*%
X128814564Y-76765000D02*
X128360436Y-76765000D01*
X128814564Y-78235000D02*
X128360436Y-78235000D01*
%TO.C,R5*%
X136314564Y-87265000D02*
X135860436Y-87265000D01*
X136314564Y-88735000D02*
X135860436Y-88735000D01*
%TO.C,C1*%
X91711252Y-86265000D02*
X91188748Y-86265000D01*
X91711252Y-87735000D02*
X91188748Y-87735000D01*
%TO.C,C6*%
X91238748Y-74765000D02*
X91761252Y-74765000D01*
X91238748Y-76235000D02*
X91761252Y-76235000D01*
%TO.C,R4*%
X128360436Y-71265000D02*
X128814564Y-71265000D01*
X128360436Y-72735000D02*
X128814564Y-72735000D01*
%TO.C,U2*%
D12*
X137900000Y-95600000D02*
X137900000Y-95450000D01*
X137900000Y-95610000D02*
X138050000Y-95610000D01*
X140450000Y-92900000D02*
X140600000Y-92900000D01*
X140600000Y-92900000D02*
X140600000Y-93050000D01*
X140600000Y-95600000D02*
X140450000Y-95600000D01*
X140600000Y-95600000D02*
X140600000Y-95450000D01*
D11*
X137900000Y-92900000D02*
X137540000Y-92900000D01*
X137900000Y-92540000D01*
X137900000Y-92900000D01*
G36*
X137900000Y-92900000D02*
G01*
X137540000Y-92900000D01*
X137900000Y-92540000D01*
X137900000Y-92900000D01*
G37*
%TO.C,U4*%
X118090000Y-100595000D02*
X122210000Y-100595000D01*
X118090000Y-100715000D02*
X118090000Y-100595000D01*
X118090000Y-105715000D02*
X118090000Y-105595000D01*
X122210000Y-100595000D02*
X122210000Y-100715000D01*
X122210000Y-105595000D02*
X122210000Y-105715000D01*
X122210000Y-105715000D02*
X118090000Y-105715000D01*
X122810000Y-105605000D02*
X123050000Y-105935000D01*
X122570000Y-105935000D01*
X122810000Y-105605000D01*
G36*
X123050000Y-105935000D02*
G01*
X122570000Y-105935000D01*
X122810000Y-105605000D01*
X123050000Y-105935000D01*
G37*
%TO.C,U3*%
X100590000Y-95440000D02*
X102410000Y-95440000D01*
X100590000Y-95490000D02*
X100590000Y-95440000D01*
X100590000Y-97390000D02*
X100590000Y-96610000D01*
X100590000Y-98560000D02*
X100590000Y-98510000D01*
X102410000Y-95440000D02*
X102410000Y-95490000D01*
X102410000Y-98510000D02*
X102410000Y-98560000D01*
X102410000Y-98560000D02*
X100590000Y-98560000D01*
X102950000Y-98510000D02*
X103190000Y-98840000D01*
X102710000Y-98840000D01*
X102950000Y-98510000D01*
G36*
X103190000Y-98840000D02*
G01*
X102710000Y-98840000D01*
X102950000Y-98510000D01*
X103190000Y-98840000D01*
G37*
%TO.C,R3*%
X85360436Y-80265000D02*
X85814564Y-80265000D01*
X85360436Y-81735000D02*
X85814564Y-81735000D01*
%TO.C,C9*%
X139511252Y-101765000D02*
X138988748Y-101765000D01*
X139511252Y-103235000D02*
X138988748Y-103235000D01*
%TD*%
M02*
